<svg xmlns="http://www.w3.org/2000/svg" xmlns:xlink="http://www.w3.org/1999/xlink" width="32" height="32" viewBox="0 0 32 32">
  <defs>
    <clipPath id="clip-path">
      <rect id="_1844_ProfileMan_Outline" data-name="1844_ProfileMan_Outline" width="32" height="32" fill="#fff" opacity="0"/>
    </clipPath>
  </defs>
  <g id="Groupe_541" data-name="Groupe 541" clip-path="url(#clip-path)">
    <path id="Tracé_124" data-name="Tracé 124" d="M20.3,18.25a7.22,7.22,0,0,1-4,1.24h-.52a7.22,7.22,0,0,1-4-1.24,4.85,4.85,0,0,0-4.5,4.82v3.22H24.8V23.07a4.85,4.85,0,0,0-4.5-4.82m3.54,7.08H8.16V23.07a3.89,3.89,0,0,1,3.31-3.83,8.11,8.11,0,0,0,4.27,1.21h.52a8.11,8.11,0,0,0,4.27-1.21,3.89,3.89,0,0,1,3.31,3.83ZM11.44,13.21a4,4,0,0,0,4,3.41h1.22a4,4,0,0,0,3.95-3.38,5.59,5.59,0,0,0,2-4.72C22.59,4.89,19.28,3,16,3S9.44,4.89,9.44,8.52a5.59,5.59,0,0,0,2,4.69m8.21-.59a3,3,0,0,1-3,3H15.39a3,3,0,0,1-3-3h0V10.35a3,3,0,0,1,.44-1.57c1.9.56,4.69,1.16,6.86,1.6ZM16,4c2.25,0,5.59,1.21,5.59,4.55a5.18,5.18,0,0,1-1,3.29V9.58l-.34-.07C18.3,9.13,14.8,8.4,12.73,7.76l-.32-.09-.2.26a4,4,0,0,0-.82,2.42v1.42a5.19,5.19,0,0,1-1-3.25C10.43,5.18,13.76,4,16,4" fill="#fff"/>
  </g>
</svg>
