<svg id="ICON_chatbox" xmlns="http://www.w3.org/2000/svg" width="80" height="80" viewBox="0 0 80 80">
  <g id="Groupe_2075" data-name="Groupe 2075">
    <rect id="Rectangle_984" data-name="Rectangle 984" width="80" height="80" fill="none"/>
  </g>
  <path id="Tracé_1818" data-name="Tracé 1818" d="M1700.017,1165.417a36.439,36.439,0,0,0-10.742-25.945l0,0a36.709,36.709,0,0,0-62.682,25.913,36.85,36.85,0,0,0,4.892,18.32l.3.522-4.895,17.942,18.352-4.821.506.271a36.7,36.7,0,0,0,54.272-32.2Zm-54.261,28.094-13.841,3.635,3.682-13.482-.421-.652a33.141,33.141,0,0,1,28.089-50.773,33.14,33.14,0,1,1,.04,66.28,33.291,33.291,0,0,1-16.908-4.625Z" transform="translate(-1623.25 -1125.536)" fill="#fff"/>
</svg>
