<svg id="_1759_J106ModeRegulation_Outline" data-name="1759_J106ModeRegulation_Outline" xmlns="http://www.w3.org/2000/svg" width="100" height="100" viewBox="0 0 100 100">
  <rect id="_1759_J106ModeRegulation_Outline-2" data-name="1759_J106ModeRegulation_Outline" width="100" height="100" fill="#43aaa0" opacity="0"/>
  <g id="Groupe_1696" data-name="Groupe 1696">
    <rect id="_1759_J106ModeRegulation_Outline-3" data-name="1759_J106ModeRegulation_Outline" width="100" height="100" fill="#43aaa0" opacity="0"/>
    <path id="Tracé_508" data-name="Tracé 508" d="M40.347,8.545a37.656,37.656,0,0,1,37.5,37.5H74.723a34.375,34.375,0,0,0-6.25-19.938L43.91,44.858a4.219,4.219,0,0,1,.25,1.125,4.063,4.063,0,1,1-2.281-3.375l24.75-18.75a34.688,34.688,0,0,0-25-12.281v9.813H38.5V11.576a34.688,34.688,0,0,0-25,12.281l7.812,5.969L19.5,32.2l-7.469-5.969A34.375,34.375,0,0,0,5.785,46.17H2.66A37.656,37.656,0,0,1,40.316,8.67m48.844,2L87.348,8.264,76.129,16.8V7.42H73V20.795l13.063,3.688.813-2.875-9.062-2.562Z" transform="translate(5.652 15.768)" fill="#fff"/>
  </g>
</svg>
