<svg id="ICON_Sign" xmlns="http://www.w3.org/2000/svg" xmlns:xlink="http://www.w3.org/1999/xlink" width="100" height="100" viewBox="0 0 100 100">
  <defs>
    <clipPath id="clip-path">
      <rect id="Rectangle_1084" data-name="Rectangle 1084" width="100" height="100" fill="none"/>
    </clipPath>
  </defs>
  <path id="Tracé_1806" data-name="Tracé 1806" d="M1742.888,1184.333h100v100h-100Z" transform="translate(-1742.888 -1184.333)" fill="none"/>
  <g id="Groupe_2131" data-name="Groupe 2131" clip-path="url(#clip-path)">
    <path id="Tracé_1866" data-name="Tracé 1866" d="M75.669,25.077,68.831,18.24a4.327,4.327,0,0,0-6.112,0l-6.344,6.344,12.95,12.954,6.344-6.347a4.327,4.327,0,0,0,0-6.112M73.681,29.2l-4.356,4.353-8.972-8.971,4.354-4.352a1.5,1.5,0,0,1,2.125-.009l.009.009,6.841,6.837A1.512,1.512,0,0,1,73.681,29.2Z" transform="translate(14.094 4.244)" fill="#fff"/>
    <path id="Tracé_1867" data-name="Tracé 1867" d="M28.472,57.587V70.539H41.426L74.6,37.414,61.653,24.468Zm11.789,10.14H31.29V58.752L61.653,28.439l8.972,8.975Z" transform="translate(7.118 6.117)" fill="#fff"/>
    <path id="Tracé_1868" data-name="Tracé 1868" d="M19.636,58.013a17.809,17.809,0,0,1,8.219-9.64,9.972,9.972,0,0,0,3.437-13.185,10.893,10.893,0,0,0-14.375-4.423A16.855,16.855,0,0,0,7.789,40.954a1.407,1.407,0,0,0,2.7.8,14.212,14.212,0,0,1,7.459-8.371,8.081,8.081,0,0,1,10.872,3.109,7.23,7.23,0,0,1-2.5,9.548,20.624,20.624,0,0,0-9.3,11.052l-.137.4a11.207,11.207,0,0,0,1.087,10.294,10.392,10.392,0,0,0,8.856,3.66q.816,0,1.722-.073a1.4,1.4,0,0,0,1.284-1.518h0a1.421,1.421,0,0,0-1.515-1.284,8.723,8.723,0,0,1-8.109-2.5,8.358,8.358,0,0,1-.685-7.625Z" transform="translate(1.933 7.403)" fill="#fff"/>
  </g>
</svg>
