<svg id="_1844_ProfileMan_Outline-2" data-name="1844_ProfileMan_Outline" xmlns="http://www.w3.org/2000/svg" xmlns:xlink="http://www.w3.org/1999/xlink" width="100" height="100" viewBox="0 0 100 100">
  <defs>
    <clipPath id="clip-path">
      <rect id="_1844_ProfileMan_Outline" data-name="1844_ProfileMan_Outline" width="100" height="100" fill="#fff" opacity="0"/>
    </clipPath>
  </defs>
  <g id="Groupe_541" data-name="Groupe 541" clip-path="url(#clip-path)">
    <path id="Tracé_124" data-name="Tracé 124" d="M47.968,50.656a22.563,22.563,0,0,1-12.5,3.875H33.842a22.562,22.562,0,0,1-12.5-3.875A15.156,15.156,0,0,0,7.28,65.719V75.781H62.03V65.719A15.156,15.156,0,0,0,47.968,50.656M59.03,72.781h-49V65.719A12.156,12.156,0,0,1,20.374,53.75a25.344,25.344,0,0,0,13.344,3.781h1.625A25.344,25.344,0,0,0,48.686,53.75,12.156,12.156,0,0,1,59.03,65.719ZM20.28,34.906a12.5,12.5,0,0,0,12.5,10.656h3.813A12.5,12.5,0,0,0,48.936,35a17.469,17.469,0,0,0,6.25-14.75C55.124,8.906,44.78,3,34.53,3s-20.5,5.906-20.5,17.25a17.469,17.469,0,0,0,6.25,14.656m25.656-1.844a9.375,9.375,0,0,1-9.375,9.375H32.624a9.375,9.375,0,0,1-9.375-9.375h0V25.969a9.375,9.375,0,0,1,1.375-4.906c5.937,1.75,14.656,3.625,21.438,5ZM34.53,6.125C41.561,6.125,52,9.906,52,20.344a16.187,16.187,0,0,1-3.125,10.281V23.563l-1.062-.219c-6.094-1.188-17.031-3.469-23.5-5.469l-1-.281-.625.813a12.5,12.5,0,0,0-2.562,7.563v4.438A16.219,16.219,0,0,1,17,20.25C17.124,9.813,27.53,6.125,34.53,6.125" transform="translate(15.47 6.375)" fill="#fff"/>
  </g>
</svg>
