<svg width="160" height="60" xmlns="http://www.w3.org/2000/svg"><text data-name="PSA BANK" style="white-space:pre" letter-spacing="1.1em" font-weight="700" font-size="13" font-family="AgencyFB-Bold, Agency FB" fill="#fff" x="5.353" y="14.972"><tspan x="5.353" y="14.972" style="font-size:13px;word-spacing:0;letter-spacing:14.3px">PSA BANK</tspan></text><path data-name="LOGO STELLANTIS" d="M54.922 42.255h7.6l-.487 1.321h-9.116v-8.95h2l.003 7.629zm-8.492-6.313.485-1.315h-10.1v8.946h9.632l.485-1.315h-8.119v-2.536h5.681l.479-1.307h-6.159v-2.478l7.616.005zm-27.356 0h5.685v7.631h2v-7.635h5.187l.485-1.315h-12.87l-.487 1.319zm114.413 7.546h2v-8.862h-2v8.862zM12.115 38.373H5.992a1.118 1.118 0 0 1-1.216-1.1v-.25a1.1 1.1 0 0 1 1.194-1.077h8.268l.486-1.315H5.389a2.365 2.365 0 0 0-2.56 2.276v.587a2.407 2.407 0 0 0 2.608 2.337h6.123a1.118 1.118 0 0 1 1.216 1.1v.25a1.1 1.1 0 0 1-1.194 1.077H3.315l-.486 1.316h9.336a2.368 2.368 0 0 0 2.561-2.275v-.587a2.409 2.409 0 0 0-2.611-2.339m138.105 0h-6.123a1.118 1.118 0 0 1-1.216-1.1v-.25a1.1 1.1 0 0 1 1.194-1.077h8.268l.486-1.315h-9.335a2.365 2.365 0 0 0-2.56 2.276v.587a2.407 2.407 0 0 0 2.608 2.337h6.123a1.118 1.118 0 0 1 1.216 1.1v.25a1.1 1.1 0 0 1-1.194 1.077h-8.267l-.486 1.316h9.331a2.368 2.368 0 0 0 2.561-2.275v-.587a2.409 2.409 0 0 0-2.606-2.339m-40.386 2.883-8.384-6.628h-2v8.862h2v-6.647l8.384 6.647h2v-8.862h-2v6.628zm-28.733 2.233h2.14l4.814-8.862h-2.14l-4.814 8.862zm7.282-8.862 4.814 8.862h2.14l-4.814-8.862h-2.14zm-18.58 0h-2v8.95h9.116l.487-1.321h-7.6l-.003-7.629zm46.108 1.315h5.686v7.631h2v-7.635h5.187l.485-1.315h-12.873l-.485 1.319zm-36.837 7.931a.927.927 0 1 0 .918.927.922.922 0 0 0-.918-.927m2.432 2.745a.927.927 0 1 0 .918.927.922.922 0 0 0-.918-.927m16.807-1.819a.919.919 0 1 0-.918.927.924.924 0 0 0 .918-.927m-3.338 1.9a.926.926 0 1 0 .919.927.923.923 0 0 0-.919-.927m-3.145 1.837a.927.927 0 1 0 .918.927.922.922 0 0 0-.918-.927m-6.334.927a.919.919 0 1 0-.918.927.924.924 0 0 0 .918-.927m-13.3-12.451a.472.472 0 1 0 .07.94.472.472 0 0 0-.07-.94m2.03 9.018a.472.472 0 1 0 .07.94.472.472 0 0 0-.07-.94m3.638 3.89a.472.472 0 1 0 .07.94.472.472 0 0 0-.07-.94m4.9 2.5a.472.472 0 1 0 .07.94.472.472 0 0 0-.07-.94m5.432.632a.472.472 0 1 0 .07.94.472.472 0 0 0-.07-.94m5.641-.777a.472.472 0 1 0 .07.94.472.472 0 0 0-.07-.94m4.783-2.351a.472.472 0 1 0 .07.94.472.472 0 0 0-.07-.94m3.632-3.883a.472.472 0 1 0 .07.94.472.472 0 0 0-.07-.94m1.839-4.57a.472.472 0 1 0 .07.94.472.472 0 0 0-.07-.94m-30.287-8.947a.467.467 0 1 0 .929-.09.467.467 0 0 0-.929.09m4.139-3.445a.472.472 0 1 0-.073-.94.472.472 0 0 0 .073.94m4.692-2.363a.472.472 0 1 0-.073-.94.472.472 0 0 0 .073.94m-4.569 11.842a.927.927 0 1 0 .017-1.854.927.927 0 0 0-.017 1.854m1-3.452a.927.927 0 1 0 .017-1.854.927.927 0 0 0-.017 1.854m2.432-2.746a.927.927 0 1 0 .015-1.854.927.927 0 0 0-.015 1.854m3.072-1.914a.927.927 0 1 0 .017-1.854.927.927 0 0 0-.017 1.854m3.662-.547a.927.927 0 1 0 .017-1.854.927.927 0 0 0-.017 1.854m0 21.087a.927.927 0 1 0 .017-1.854.927.927 0 0 0-.017 1.854M77.881 30.705a.728.728 0 1 0 .721.728.723.723 0 0 0-.721-.728m-2.3 3.814a.728.728 0 1 0 .721.728.723.723 0 0 0-.721-.728m-.88 4.275a.728.728 0 1 0 .721.728.723.723 0 0 0-.721-.728m6.684-10.958a.728.728 0 1 0-.015 1.455.728.728 0 0 0 .015-1.455m4.567-1.553a.728.728 0 1 0 .721.728.723.723 0 0 0-.721-.728m2.277-1.29a.472.472 0 1 0-.011.944.472.472 0 0 0 .011-.944m14.006 7.02a.472.472 0 1 0-.092.939.472.472 0 0 0 .092-.939m-3.208-3.363a.467.467 0 1 0-.506.429.473.473 0 0 0 .506-.429m-4.692-2.363a.467.467 0 1 0-.506.429.473.473 0 0 0 .506-.429m3.978 7.892a.919.919 0 1 0-.918.927.924.924 0 0 0 .918-.927m-2.432-2.746a.919.919 0 1 0-1.837.018.919.919 0 0 0 1.837-.018m-3.072-1.914a.919.919 0 1 0-.918.927.924.924 0 0 0 .918-.927m5.05 1.913a.72.72 0 1 0 1.441-.013.72.72 0 0 0-1.441.013m.051 16.119a.72.72 0 1 0 1.441-.013.72.72 0 0 0-1.441.013m-3.555 2.881a.72.72 0 1 0 1.441-.013.72.72 0 0 0-1.441.013m-4.468 1.425a.72.72 0 1 0 1.441-.013.72.72 0 0 0-1.441.013m-4.647.055a.72.72 0 1 0 1.441-.013.72.72 0 0 0-1.441.013m-4.532-1.381a.72.72 0 1 0 1.441-.013.72.72 0 0 0-1.441.013m-3.551-3.008a.72.72 0 1 0 1.441-.013.72.72 0 0 0-1.441.013m17.2-18.961a.72.72 0 1 0 1.441-.013.72.72 0 0 0-1.441.013m-4.567-1.553a.72.72 0 1 0 1.441-.013.72.72 0 0 0-1.441.013" fill="#fff"/></svg>