<svg xmlns="http://www.w3.org/2000/svg" id="Header_mobile" data-name="Header mobile" viewBox="72 16.74 97.54 37.52"><text id="PSA_BANK" data-name="PSA BANK" transform="translate(72 52.258)" fill="#fff" font-size="8" font-family="AgencyFB-Bold, Agency FB" font-weight="700" letter-spacing="1.1em"><tspan x="0" y="0">PSA BANK</tspan></text><path id="LOGO_STELLANTIS" data-name="LOGO STELLANTIS" d="M373.928,143.158h4.7l-.3.807h-5.628V138.5h1.233Zm-5.243-3.855.3-.8h-6.238v5.465h5.947l.3-.8h-5.013v-1.548h3.507l.3-.8h-3.8V139.3Zm-16.89,0h3.51v4.661h1.233V139.3h3.2l.3-.8h-7.947Zm70.643,4.607h1.234V138.5h-1.234Zm-74.94-3.124h-3.781a.687.687,0,0,1-.751-.673v-.153a.678.678,0,0,1,.737-.658h5.1l.3-.8h-5.763a1.454,1.454,0,0,0-1.581,1.389v.358a1.48,1.48,0,0,0,1.61,1.427h3.781a.687.687,0,0,1,.751.673v.153a.677.677,0,0,1-.737.658h-5.1l-.3.8h5.763a1.455,1.455,0,0,0,1.581-1.389v-.359a1.48,1.48,0,0,0-1.61-1.427m85.271,0h-3.781a.687.687,0,0,1-.751-.673v-.153a.678.678,0,0,1,.737-.658h5.1l.3-.8h-5.764a1.454,1.454,0,0,0-1.581,1.389v.358a1.48,1.48,0,0,0,1.61,1.427h3.781a.687.687,0,0,1,.751.673v.153a.677.677,0,0,1-.737.658h-5.1l-.3.8H432.8a1.455,1.455,0,0,0,1.581-1.389v-.359a1.48,1.48,0,0,0-1.61-1.427m-24.936,1.76-5.177-4.047h-1.233v5.41h1.233v-4.058l5.177,4.058h1.233V138.5h-1.233Zm-17.74,1.363h1.321l2.973-5.41h-1.322Zm4.5-5.41,2.972,5.41h1.322l-2.973-5.41Zm-11.472,0h-1.233v5.465h5.628l.3-.807h-4.7Zm28.469.8H415.1v4.661h1.233V139.3h3.2l.3-.8h-7.947Zm-22.745,4.845a.566.566,0,1,0,.567.566.566.566,0,0,0-.567-.566m1.5,1.676a.566.566,0,1,0,.567.566.567.567,0,0,0-.567-.566m10.377-1.11a.567.567,0,1,0-.567.566.567.567,0,0,0,.567-.566m-2.061,1.157a.566.566,0,1,0,.567.566.566.566,0,0,0-.567-.566m-1.942,1.122a.566.566,0,1,0,.567.566.567.567,0,0,0-.567-.566m-3.911.566a.567.567,0,1,0-.567.566.567.567,0,0,0,.567-.566m-8.21-7.6a.288.288,0,1,0,.312.262.288.288,0,0,0-.312-.262m1.253,5.506a.288.288,0,1,0,.312.262.288.288,0,0,0-.312-.262m2.246,2.375a.288.288,0,1,0,.312.262.288.288,0,0,0-.312-.262m3.026,1.524a.288.288,0,1,0,.312.262.288.288,0,0,0-.312-.262m3.354.386a.288.288,0,1,0,.312.262.288.288,0,0,0-.312-.262m3.483-.474a.288.288,0,1,0,.312.262.288.288,0,0,0-.312-.262m2.953-1.435a.288.288,0,1,0,.312.262.288.288,0,0,0-.312-.262m2.243-2.371a.288.288,0,1,0,.312.262.288.288,0,0,0-.312-.262m1.136-2.79a.288.288,0,1,0,.312.262.288.288,0,0,0-.312-.262m-18.7-5.462a.288.288,0,1,0,.263-.312.288.288,0,0,0-.263.312m2.556-2.1a.288.288,0,1,0-.312-.262.288.288,0,0,0,.312.262m2.9-1.443a.288.288,0,1,0-.312-.262.288.288,0,0,0,.312.262m-2.821,7.23a.566.566,0,1,0-.567-.566.567.567,0,0,0,.567.566m.62-2.107a.566.566,0,1,0-.567-.566.567.567,0,0,0,.567.566m1.5-1.677a.566.566,0,1,0-.567-.566.567.567,0,0,0,.567.566m1.9-1.168a.566.566,0,1,0-.567-.566.567.567,0,0,0,.567.566m2.261-.334a.566.566,0,1,0-.567-.566.566.566,0,0,0,.567.566m0,12.874a.566.566,0,1,0-.567-.566.567.567,0,0,0,.567.566M388.108,136.1a.444.444,0,1,0,.445.444.445.445,0,0,0-.445-.444m-1.418,2.328a.444.444,0,1,0,.445.445.445.445,0,0,0-.445-.445m-.543,2.61a.444.444,0,1,0,.445.445.445.445,0,0,0-.445-.445m4.127-6.69a.444.444,0,1,0,.445.445.445.445,0,0,0-.445-.445m2.82-.948a.444.444,0,1,0,.445.444.445.445,0,0,0-.445-.444m1.406-.788a.288.288,0,1,0,.289.288.288.288,0,0,0-.289-.288m8.648,4.286a.288.288,0,1,0,.263.312.288.288,0,0,0-.263-.312m-1.981-2.053a.288.288,0,1,0-.312.262.288.288,0,0,0,.312-.262m-2.9-1.443a.288.288,0,1,0-.313.262.289.289,0,0,0,.313-.262m2.456,4.819a.567.567,0,1,0-.567.566.567.567,0,0,0,.567-.566m-1.5-1.677a.567.567,0,1,0-.567.566.566.566,0,0,0,.567-.566m-1.9-1.168a.567.567,0,1,0-.567.566.567.567,0,0,0,.567-.566m3.118,1.168a.445.445,0,1,0,.445-.444.445.445,0,0,0-.445.444m.032,9.841a.445.445,0,1,0,.445-.444.445.445,0,0,0-.445.444m-2.2,1.759a.445.445,0,1,0,.445-.444.445.445,0,0,0-.445.444m-2.759.87a.445.445,0,1,0,.445-.444.445.445,0,0,0-.445.444m-2.869.034a.445.445,0,1,0,.445-.444.445.445,0,0,0-.445.444m-2.8-.843a.445.445,0,1,0,.445-.444.445.445,0,0,0-.445.444m-2.192-1.836a.445.445,0,1,0,.445-.445.445.445,0,0,0-.445.445M398.28,134.8a.445.445,0,1,0,.445-.445.445.445,0,0,0-.445.445m-2.82-.948a.445.445,0,1,0,.445-.444.445.445,0,0,0-.445.444" transform="translate(-269.763 -115.875)" fill="#fff"></path></svg>
